<mxfile host="app.diagrams.net" agent="Mozilla/5.0 (Windows NT 10.0; Win64; x64) AppleWebKit/537.36 (KHTML, like Gecko) Chrome/136.0.0.0 Safari/537.36" version="27.0.6">
  <diagram name="Page-1" id="ExMCW3zBbMZZemRc5o2k">
    <mxGraphModel dx="1245" dy="697" grid="1" gridSize="10" guides="1" tooltips="1" connect="1" arrows="1" fold="1" page="1" pageScale="1" pageWidth="850" pageHeight="1100" math="0" shadow="0">
      <root>
        <mxCell id="0" />
        <mxCell id="1" parent="0" />
        <mxCell id="_PLBUJP-PVppwy-E5VyR-6" style="edgeStyle=orthogonalEdgeStyle;rounded=0;orthogonalLoop=1;jettySize=auto;html=1;exitX=0.5;exitY=1;exitDx=0;exitDy=0;entryX=0.5;entryY=0;entryDx=0;entryDy=0;" edge="1" parent="1" source="_PLBUJP-PVppwy-E5VyR-1" target="_PLBUJP-PVppwy-E5VyR-3">
          <mxGeometry relative="1" as="geometry" />
        </mxCell>
        <mxCell id="_PLBUJP-PVppwy-E5VyR-7" style="edgeStyle=orthogonalEdgeStyle;rounded=0;orthogonalLoop=1;jettySize=auto;html=1;exitX=0.5;exitY=1;exitDx=0;exitDy=0;entryX=0.5;entryY=0;entryDx=0;entryDy=0;" edge="1" parent="1" source="_PLBUJP-PVppwy-E5VyR-1" target="_PLBUJP-PVppwy-E5VyR-5">
          <mxGeometry relative="1" as="geometry" />
        </mxCell>
        <mxCell id="_PLBUJP-PVppwy-E5VyR-8" style="edgeStyle=orthogonalEdgeStyle;rounded=0;orthogonalLoop=1;jettySize=auto;html=1;exitX=0.5;exitY=1;exitDx=0;exitDy=0;entryX=0.5;entryY=0;entryDx=0;entryDy=0;" edge="1" parent="1" source="_PLBUJP-PVppwy-E5VyR-1" target="_PLBUJP-PVppwy-E5VyR-4">
          <mxGeometry relative="1" as="geometry" />
        </mxCell>
        <mxCell id="_PLBUJP-PVppwy-E5VyR-9" style="edgeStyle=orthogonalEdgeStyle;rounded=0;orthogonalLoop=1;jettySize=auto;html=1;exitX=0.5;exitY=1;exitDx=0;exitDy=0;entryX=0.5;entryY=0;entryDx=0;entryDy=0;" edge="1" parent="1" source="_PLBUJP-PVppwy-E5VyR-1" target="_PLBUJP-PVppwy-E5VyR-2">
          <mxGeometry relative="1" as="geometry" />
        </mxCell>
        <mxCell id="_PLBUJP-PVppwy-E5VyR-1" value="VOĆARSKO GOSPODARSTVO&amp;nbsp;&lt;div&gt;&quot;FRUITMASTER&quot;&lt;/div&gt;" style="rounded=0;whiteSpace=wrap;html=1;" vertex="1" parent="1">
          <mxGeometry x="330" y="30" width="240" height="60" as="geometry" />
        </mxCell>
        <mxCell id="_PLBUJP-PVppwy-E5VyR-11" style="edgeStyle=orthogonalEdgeStyle;rounded=0;orthogonalLoop=1;jettySize=auto;html=1;exitX=0.5;exitY=1;exitDx=0;exitDy=0;" edge="1" parent="1" source="_PLBUJP-PVppwy-E5VyR-2">
          <mxGeometry relative="1" as="geometry">
            <mxPoint x="280" y="660" as="targetPoint" />
          </mxGeometry>
        </mxCell>
        <mxCell id="_PLBUJP-PVppwy-E5VyR-2" value="OBRADA NARUDŽBI I KUPACA" style="rounded=0;whiteSpace=wrap;html=1;" vertex="1" parent="1">
          <mxGeometry x="220" y="150" width="120" height="60" as="geometry" />
        </mxCell>
        <mxCell id="_PLBUJP-PVppwy-E5VyR-10" style="edgeStyle=orthogonalEdgeStyle;rounded=0;orthogonalLoop=1;jettySize=auto;html=1;exitX=0.5;exitY=1;exitDx=0;exitDy=0;" edge="1" parent="1" source="_PLBUJP-PVppwy-E5VyR-3">
          <mxGeometry relative="1" as="geometry">
            <mxPoint x="70" y="656" as="targetPoint" />
          </mxGeometry>
        </mxCell>
        <mxCell id="_PLBUJP-PVppwy-E5VyR-3" value="UPRAVLJANJE SUSTAVOM" style="rounded=0;whiteSpace=wrap;html=1;" vertex="1" parent="1">
          <mxGeometry x="10" y="150" width="120" height="60" as="geometry" />
        </mxCell>
        <mxCell id="_PLBUJP-PVppwy-E5VyR-12" style="edgeStyle=orthogonalEdgeStyle;rounded=0;orthogonalLoop=1;jettySize=auto;html=1;exitX=0.5;exitY=1;exitDx=0;exitDy=0;" edge="1" parent="1" source="_PLBUJP-PVppwy-E5VyR-4">
          <mxGeometry relative="1" as="geometry">
            <mxPoint x="480" y="660" as="targetPoint" />
          </mxGeometry>
        </mxCell>
        <mxCell id="_PLBUJP-PVppwy-E5VyR-4" value="UPRAVLJANJE ISPORUKAMA" style="rounded=0;whiteSpace=wrap;html=1;" vertex="1" parent="1">
          <mxGeometry x="420" y="150" width="120" height="60" as="geometry" />
        </mxCell>
        <mxCell id="_PLBUJP-PVppwy-E5VyR-13" style="edgeStyle=orthogonalEdgeStyle;rounded=0;orthogonalLoop=1;jettySize=auto;html=1;exitX=0.5;exitY=1;exitDx=0;exitDy=0;" edge="1" parent="1" source="_PLBUJP-PVppwy-E5VyR-5">
          <mxGeometry relative="1" as="geometry">
            <mxPoint x="670" y="660" as="targetPoint" />
          </mxGeometry>
        </mxCell>
        <mxCell id="_PLBUJP-PVppwy-E5VyR-5" value="UPRAVLJANJE ZALIHAMA I KORISNICIMA" style="rounded=0;whiteSpace=wrap;html=1;" vertex="1" parent="1">
          <mxGeometry x="610" y="150" width="120" height="60" as="geometry" />
        </mxCell>
        <mxCell id="_PLBUJP-PVppwy-E5VyR-36" style="edgeStyle=orthogonalEdgeStyle;rounded=0;orthogonalLoop=1;jettySize=auto;html=1;exitX=0;exitY=0.5;exitDx=0;exitDy=0;" edge="1" parent="1" source="_PLBUJP-PVppwy-E5VyR-14">
          <mxGeometry relative="1" as="geometry">
            <mxPoint x="70" y="660" as="targetPoint" />
          </mxGeometry>
        </mxCell>
        <mxCell id="_PLBUJP-PVppwy-E5VyR-14" value="Upravljanje korisnicima" style="rounded=1;whiteSpace=wrap;html=1;" vertex="1" parent="1">
          <mxGeometry x="90" y="240" width="120" height="60" as="geometry" />
        </mxCell>
        <mxCell id="_PLBUJP-PVppwy-E5VyR-37" style="edgeStyle=orthogonalEdgeStyle;rounded=0;orthogonalLoop=1;jettySize=auto;html=1;exitX=0;exitY=0.5;exitDx=0;exitDy=0;" edge="1" parent="1" source="_PLBUJP-PVppwy-E5VyR-15">
          <mxGeometry relative="1" as="geometry">
            <mxPoint x="70" y="660" as="targetPoint" />
          </mxGeometry>
        </mxCell>
        <mxCell id="_PLBUJP-PVppwy-E5VyR-15" value="Upravljanje&lt;div&gt;sustavom&lt;/div&gt;" style="rounded=1;whiteSpace=wrap;html=1;" vertex="1" parent="1">
          <mxGeometry x="90" y="330" width="120" height="60" as="geometry" />
        </mxCell>
        <mxCell id="_PLBUJP-PVppwy-E5VyR-39" style="edgeStyle=orthogonalEdgeStyle;rounded=0;orthogonalLoop=1;jettySize=auto;html=1;exitX=0;exitY=0.5;exitDx=0;exitDy=0;" edge="1" parent="1" source="_PLBUJP-PVppwy-E5VyR-16">
          <mxGeometry relative="1" as="geometry">
            <mxPoint x="70" y="660" as="targetPoint" />
          </mxGeometry>
        </mxCell>
        <mxCell id="_PLBUJP-PVppwy-E5VyR-16" value="Upravljanje&lt;div&gt;sustavom&lt;/div&gt;" style="rounded=1;whiteSpace=wrap;html=1;" vertex="1" parent="1">
          <mxGeometry x="90" y="510" width="120" height="60" as="geometry" />
        </mxCell>
        <mxCell id="_PLBUJP-PVppwy-E5VyR-38" style="edgeStyle=orthogonalEdgeStyle;rounded=0;orthogonalLoop=1;jettySize=auto;html=1;exitX=0;exitY=0.5;exitDx=0;exitDy=0;" edge="1" parent="1" source="_PLBUJP-PVppwy-E5VyR-17">
          <mxGeometry relative="1" as="geometry">
            <mxPoint x="70" y="660" as="targetPoint" />
          </mxGeometry>
        </mxCell>
        <mxCell id="_PLBUJP-PVppwy-E5VyR-17" value="Slanje obavijesti o promjenama" style="rounded=1;whiteSpace=wrap;html=1;" vertex="1" parent="1">
          <mxGeometry x="90" y="420" width="120" height="60" as="geometry" />
        </mxCell>
        <mxCell id="_PLBUJP-PVppwy-E5VyR-40" style="edgeStyle=orthogonalEdgeStyle;rounded=0;orthogonalLoop=1;jettySize=auto;html=1;exitX=0;exitY=0.5;exitDx=0;exitDy=0;" edge="1" parent="1" source="_PLBUJP-PVppwy-E5VyR-22">
          <mxGeometry relative="1" as="geometry">
            <mxPoint x="280" y="660" as="targetPoint" />
          </mxGeometry>
        </mxCell>
        <mxCell id="_PLBUJP-PVppwy-E5VyR-22" value="Prikaz narudžbi" style="rounded=1;whiteSpace=wrap;html=1;" vertex="1" parent="1">
          <mxGeometry x="300" y="240" width="120" height="60" as="geometry" />
        </mxCell>
        <mxCell id="_PLBUJP-PVppwy-E5VyR-41" style="edgeStyle=orthogonalEdgeStyle;rounded=0;orthogonalLoop=1;jettySize=auto;html=1;exitX=0;exitY=0.5;exitDx=0;exitDy=0;" edge="1" parent="1" source="_PLBUJP-PVppwy-E5VyR-23">
          <mxGeometry relative="1" as="geometry">
            <mxPoint x="280" y="660" as="targetPoint" />
          </mxGeometry>
        </mxCell>
        <mxCell id="_PLBUJP-PVppwy-E5VyR-23" value="&lt;div&gt;Pregled statusa narudžbi&lt;/div&gt;" style="rounded=1;whiteSpace=wrap;html=1;" vertex="1" parent="1">
          <mxGeometry x="300" y="330" width="120" height="60" as="geometry" />
        </mxCell>
        <mxCell id="_PLBUJP-PVppwy-E5VyR-43" style="edgeStyle=orthogonalEdgeStyle;rounded=0;orthogonalLoop=1;jettySize=auto;html=1;exitX=0;exitY=0.5;exitDx=0;exitDy=0;" edge="1" parent="1" source="_PLBUJP-PVppwy-E5VyR-24">
          <mxGeometry relative="1" as="geometry">
            <mxPoint x="280" y="660" as="targetPoint" />
          </mxGeometry>
        </mxCell>
        <mxCell id="_PLBUJP-PVppwy-E5VyR-24" value="Izdavanje potvrda kupcima" style="rounded=1;whiteSpace=wrap;html=1;" vertex="1" parent="1">
          <mxGeometry x="300" y="510" width="120" height="60" as="geometry" />
        </mxCell>
        <mxCell id="_PLBUJP-PVppwy-E5VyR-42" style="edgeStyle=orthogonalEdgeStyle;rounded=0;orthogonalLoop=1;jettySize=auto;html=1;exitX=0;exitY=0.5;exitDx=0;exitDy=0;" edge="1" parent="1" source="_PLBUJP-PVppwy-E5VyR-25">
          <mxGeometry relative="1" as="geometry">
            <mxPoint x="280" y="660" as="targetPoint" />
          </mxGeometry>
        </mxCell>
        <mxCell id="_PLBUJP-PVppwy-E5VyR-25" value="Odobravanje / odbijanje narudžbi" style="rounded=1;whiteSpace=wrap;html=1;" vertex="1" parent="1">
          <mxGeometry x="300" y="420" width="120" height="60" as="geometry" />
        </mxCell>
        <mxCell id="_PLBUJP-PVppwy-E5VyR-44" style="edgeStyle=orthogonalEdgeStyle;rounded=0;orthogonalLoop=1;jettySize=auto;html=1;exitX=0;exitY=0.5;exitDx=0;exitDy=0;" edge="1" parent="1" source="_PLBUJP-PVppwy-E5VyR-26">
          <mxGeometry relative="1" as="geometry">
            <mxPoint x="480" y="660" as="targetPoint" />
          </mxGeometry>
        </mxCell>
        <mxCell id="_PLBUJP-PVppwy-E5VyR-26" value="Slanje zahtjeva za isporuku" style="rounded=1;whiteSpace=wrap;html=1;" vertex="1" parent="1">
          <mxGeometry x="500" y="240" width="120" height="60" as="geometry" />
        </mxCell>
        <mxCell id="_PLBUJP-PVppwy-E5VyR-45" style="edgeStyle=orthogonalEdgeStyle;rounded=0;orthogonalLoop=1;jettySize=auto;html=1;exitX=0;exitY=0.5;exitDx=0;exitDy=0;" edge="1" parent="1" source="_PLBUJP-PVppwy-E5VyR-27">
          <mxGeometry relative="1" as="geometry">
            <mxPoint x="480" y="660" as="targetPoint" />
          </mxGeometry>
        </mxCell>
        <mxCell id="_PLBUJP-PVppwy-E5VyR-27" value="Zaprimanje isporuka od dobavljača" style="rounded=1;whiteSpace=wrap;html=1;" vertex="1" parent="1">
          <mxGeometry x="500" y="330" width="120" height="60" as="geometry" />
        </mxCell>
        <mxCell id="_PLBUJP-PVppwy-E5VyR-47" style="edgeStyle=orthogonalEdgeStyle;rounded=0;orthogonalLoop=1;jettySize=auto;html=1;exitX=0;exitY=0.5;exitDx=0;exitDy=0;" edge="1" parent="1" source="_PLBUJP-PVppwy-E5VyR-28">
          <mxGeometry relative="1" as="geometry">
            <mxPoint x="480" y="660" as="targetPoint" />
          </mxGeometry>
        </mxCell>
        <mxCell id="_PLBUJP-PVppwy-E5VyR-28" value="&lt;div&gt;Komunikacija s dobavljačima&lt;/div&gt;" style="rounded=1;whiteSpace=wrap;html=1;" vertex="1" parent="1">
          <mxGeometry x="500" y="510" width="120" height="60" as="geometry" />
        </mxCell>
        <mxCell id="_PLBUJP-PVppwy-E5VyR-46" style="edgeStyle=orthogonalEdgeStyle;rounded=0;orthogonalLoop=1;jettySize=auto;html=1;exitX=0;exitY=0.5;exitDx=0;exitDy=0;" edge="1" parent="1" source="_PLBUJP-PVppwy-E5VyR-29">
          <mxGeometry relative="1" as="geometry">
            <mxPoint x="480" y="660" as="targetPoint" />
          </mxGeometry>
        </mxCell>
        <mxCell id="_PLBUJP-PVppwy-E5VyR-29" value="Evidentiranje robe u skladište" style="rounded=1;whiteSpace=wrap;html=1;" vertex="1" parent="1">
          <mxGeometry x="500" y="420" width="120" height="60" as="geometry" />
        </mxCell>
        <mxCell id="_PLBUJP-PVppwy-E5VyR-48" style="edgeStyle=orthogonalEdgeStyle;rounded=0;orthogonalLoop=1;jettySize=auto;html=1;exitX=0;exitY=0.5;exitDx=0;exitDy=0;" edge="1" parent="1" source="_PLBUJP-PVppwy-E5VyR-30">
          <mxGeometry relative="1" as="geometry">
            <mxPoint x="670" y="660" as="targetPoint" />
          </mxGeometry>
        </mxCell>
        <mxCell id="_PLBUJP-PVppwy-E5VyR-30" value="Prikaz zaliha" style="rounded=1;whiteSpace=wrap;html=1;" vertex="1" parent="1">
          <mxGeometry x="690" y="240" width="120" height="60" as="geometry" />
        </mxCell>
        <mxCell id="_PLBUJP-PVppwy-E5VyR-49" style="edgeStyle=orthogonalEdgeStyle;rounded=0;orthogonalLoop=1;jettySize=auto;html=1;exitX=0;exitY=0.5;exitDx=0;exitDy=0;" edge="1" parent="1" source="_PLBUJP-PVppwy-E5VyR-31">
          <mxGeometry relative="1" as="geometry">
            <mxPoint x="670" y="660" as="targetPoint" />
          </mxGeometry>
        </mxCell>
        <mxCell id="_PLBUJP-PVppwy-E5VyR-31" value="Upravljanje zalihama" style="rounded=1;whiteSpace=wrap;html=1;" vertex="1" parent="1">
          <mxGeometry x="690" y="330" width="120" height="60" as="geometry" />
        </mxCell>
        <mxCell id="_PLBUJP-PVppwy-E5VyR-51" style="edgeStyle=orthogonalEdgeStyle;rounded=0;orthogonalLoop=1;jettySize=auto;html=1;exitX=0;exitY=0.5;exitDx=0;exitDy=0;" edge="1" parent="1" source="_PLBUJP-PVppwy-E5VyR-32">
          <mxGeometry relative="1" as="geometry">
            <mxPoint x="670" y="660" as="targetPoint" />
          </mxGeometry>
        </mxCell>
        <mxCell id="_PLBUJP-PVppwy-E5VyR-32" value="Uređivanje korisničkih podataka" style="rounded=1;whiteSpace=wrap;html=1;" vertex="1" parent="1">
          <mxGeometry x="690" y="510" width="120" height="60" as="geometry" />
        </mxCell>
        <mxCell id="_PLBUJP-PVppwy-E5VyR-50" style="edgeStyle=orthogonalEdgeStyle;rounded=0;orthogonalLoop=1;jettySize=auto;html=1;exitX=0;exitY=0.5;exitDx=0;exitDy=0;" edge="1" parent="1" source="_PLBUJP-PVppwy-E5VyR-33">
          <mxGeometry relative="1" as="geometry">
            <mxPoint x="670" y="660" as="targetPoint" />
          </mxGeometry>
        </mxCell>
        <mxCell id="_PLBUJP-PVppwy-E5VyR-33" value="Pregled korisnika" style="rounded=1;whiteSpace=wrap;html=1;" vertex="1" parent="1">
          <mxGeometry x="690" y="420" width="120" height="60" as="geometry" />
        </mxCell>
      </root>
    </mxGraphModel>
  </diagram>
</mxfile>
